<?xml version="1.0" encoding="UTF-8" standalone="no"?>
<!-- Created with Inkscape (http://www.inkscape.org/) -->

<svg
   version="1.1"
   id="svg1"
   width="528.79999"
   height="211.74667"
   viewBox="0 0 528.79999 211.74667"
   sodipodi:docname="skyro-LOGO-6A-final -without tagline.eps"
   xmlns:inkscape="http://www.inkscape.org/namespaces/inkscape"
   xmlns:sodipodi="http://sodipodi.sourceforge.net/DTD/sodipodi-0.dtd"
   xmlns="http://www.w3.org/2000/svg"
   xmlns:svg="http://www.w3.org/2000/svg">
  <defs
     id="defs1" />
  <sodipodi:namedview
     id="namedview1"
     pagecolor="#ffffff"
     bordercolor="#000000"
     borderopacity="0.25"
     inkscape:showpageshadow="2"
     inkscape:pageopacity="0.0"
     inkscape:pagecheckerboard="0"
     inkscape:deskcolor="#d1d1d1">
    <inkscape:page
       x="0"
       y="0"
       inkscape:label="1"
       id="page1"
       width="528.79999"
       height="211.74667"
       margin="0"
       bleed="0" />
  </sodipodi:namedview>
  <g
     id="g1"
     inkscape:groupmode="layer"
     inkscape:label="1">
    <g
       id="group-R5">
      <path
         id="path2"
         d="M 1989.32,258.602 1747.29,588.578 1627.7,483.301 V 258.602 H 1490.85 V 1142.62 H 1627.7 V 611.379 l 295.35,306.586 h 159.92 L 1835.88,667.406 2137.7,258.602 h -148.38"
         style="fill:#48bfef;fill-opacity:1;fill-rule:nonzero;stroke:none"
         transform="matrix(0.13333333,0,0,-0.13333333,0,211.74667)" />
      <path
         id="path3"
         d="M 2498.38,146.48 C 2480.59,104.621 2437.75,66.1719 2380.88,38.25 2323.96,10.3281 2260.25,0 2190.13,0 v 104.66 c 57.15,0 106.12,11.391 146.96,34.192 40.81,22.769 61.25,50.578 61.25,83.437 0,37.691 -7.45,71.699 -22.33,106.789 -14.92,35.082 -34.13,78.5 -57.66,130.223 l -208.87,458.664 h 139.75 L 2476.1,408.191 2679.98,917.965 H 2819.7 L 2498.38,146.48"
         style="fill:#48bfef;fill-opacity:1;fill-rule:nonzero;stroke:none"
         transform="matrix(0.13333333,0,0,-0.13333333,0,211.74667)" />
      <path
         id="path4"
         d="m 2732.4,266.68 c -16.95,16.609 -25.45,37.648 -25.45,63.109 0,26.152 8.31,47.371 24.93,63.652 16.63,16.258 37.3,24.387 62.07,24.387 24.74,0 45.42,-8.129 62.05,-24.387 16.6,-16.281 24.92,-37.5 24.92,-63.652 0,-25.461 -8.5,-46.5 -25.46,-63.109 -16.95,-16.629 -37.48,-24.93 -61.51,-24.93 -24.06,0 -44.56,8.301 -61.55,24.93"
         style="fill:#1e5cb3;fill-opacity:1;fill-rule:nonzero;stroke:none"
         transform="matrix(0.13333333,0,0,-0.13333333,0,211.74667)" />
      <path
         id="path5"
         d="M 3325.57,821.973 V 695.754 c -11.32,2.121 -21.57,3.176 -30.75,3.176 -51.65,0 -91.96,-15.028 -120.94,-45.086 -29,-30.059 -43.49,-73.364 -43.49,-129.934 V 249.172 h -132.6 v 566.449 h 126.24 v -82.738 c 38.2,59.387 105.35,89.09 201.54,89.09"
         style="fill:#1e5cb3;fill-opacity:1;fill-rule:nonzero;stroke:none"
         transform="matrix(0.13333333,0,0,-0.13333333,0,211.74667)" />
      <path
         id="path6"
         d="m 3784.56,404.039 c 31.81,32.531 47.73,75.32 47.73,128.352 0,53.039 -15.92,95.816 -47.73,128.355 -31.85,32.512 -72.15,48.789 -120.92,48.789 -48.8,0 -88.96,-16.277 -120.42,-48.789 -31.45,-32.539 -47.19,-75.316 -47.19,-128.355 0,-53.032 15.74,-95.821 47.19,-128.352 31.46,-32.539 71.62,-48.801 120.42,-48.801 48.77,0 89.07,16.262 120.92,48.801 z m -275.79,-125.16 c -45.98,24.742 -81.86,59.211 -107.67,103.422 -25.85,44.179 -38.74,94.219 -38.74,150.09 0,55.851 12.89,105.711 38.74,149.566 25.81,43.84 61.69,78.133 107.67,102.887 45.95,24.761 97.58,37.129 154.87,37.129 57.95,0 109.93,-12.368 155.91,-37.129 45.98,-24.754 81.86,-59.047 107.67,-102.887 25.82,-43.855 38.74,-93.715 38.74,-149.566 0,-55.871 -12.92,-105.911 -38.74,-150.09 -25.81,-44.211 -61.69,-78.68 -107.67,-103.422 -45.98,-24.758 -97.96,-37.129 -155.91,-37.129 -57.29,0 -108.92,12.371 -154.87,37.129"
         style="fill:#1e5cb3;fill-opacity:1;fill-rule:nonzero;stroke:none"
         transform="matrix(0.13333333,0,0,-0.13333333,0,211.74667)" />
      <path
         id="path7"
         d="m 1296.83,654.641 c -41.59,17.816 -139.7,66.32 -99,136.597 43.56,75.25 207.89,0 207.89,0 v 122.629 c -166.32,63.488 -324.7,-27.594 -350.45,-130.527 -24.45,-97.813 52.79,-176.762 126.72,-207.891 75.25,-31.711 87.8,-71.277 87.8,-114.828 -4.9,-30.609 -20.83,-56.551 -48.25,-77.66 -9.58,-7.391 -20.16,-13.582 -31.53,-18.84 -33.29,-14.07 -68.4,-17.223 -84.3,-17.223 H 939.023 V 236.039 H 1065.8 c 0.22,0 0.44,0.051 0.66,0.063 0.74,-0.032 1.47,-0.063 2.2,-0.063 104.28,0 187.52,23.063 249.76,69.25 57.99,43.012 88.61,94.871 92.58,155.332 0,120.77 -72.61,176.195 -114.17,194.02"
         style="fill:#48bfef;fill-opacity:1;fill-rule:nonzero;stroke:none"
         transform="matrix(0.13333333,0,0,-0.13333333,0,211.74667)" />
      <path
         id="path8"
         d="m 401.563,924.531 48.195,1.485 5.215,47.91 c 31.199,286.954 272.695,503.324 561.737,503.324 198.08,0 372.46,-102.59 473.41,-257.27 h 134.52 c -120.39,231.92 -346.01,368.15 -607.93,368.15 -330.343,0 -608.772,-236.36 -665.511,-556.86 C 150.852,1002.56 0,832.152 0,624.652 0,403.102 176.68,236.039 410.977,236.039 H 859.18 V 346.898 H 410.977 c -171.094,0 -300.11,119.422 -300.11,277.754 0,163.114 127.696,294.86 290.696,299.879"
         style="fill:#48bfef;fill-opacity:1;fill-rule:nonzero;stroke:none"
         transform="matrix(0.13333333,0,0,-0.13333333,0,211.74667)" />
    </g>
  </g>
</svg>
