<svg xmlns="http://www.w3.org/2000/svg" width="600" height="600" viewBox="0 0 600 600" version="1.1"><path d="M 489.286 290.428 C 483.640 292.223, 476.449 296.521, 474.546 299.238 C 473.074 301.339, 473 301.170, 473 295.723 L 473 290 463 290 L 453 290 453 333 L 453 376 463.424 376 L 473.848 376 474.188 350.750 C 474.479 329.170, 474.788 324.921, 476.312 321.514 C 480.087 313.076, 486.825 308.828, 497 308.472 L 503.500 308.245 503.500 298.872 L 503.500 289.500 498.500 289.294 C 495.750 289.181, 491.604 289.691, 489.286 290.428 M 540.105 290.583 C 524.628 294.744, 512.373 307.489, 509.124 322.799 C 504.774 343.305, 513.689 362.849, 531.328 371.475 C 555.561 383.325, 584.774 374.666, 595.115 352.569 C 607.505 326.092, 593.650 296.461, 565.888 290.061 C 559.624 288.616, 546.422 288.884, 540.105 290.583 M 541.864 309.793 C 525.183 318.481, 524.959 346.401, 541.496 355.678 C 549.648 360.251, 561.203 359.533, 568.872 353.978 C 574.602 349.827, 578.385 341.546, 578.415 333.090 C 578.445 324.802, 576.745 319.833, 572.129 314.713 C 567.179 309.222, 562.018 307.049, 553.864 307.022 C 548.519 307.004, 546.185 307.543, 541.864 309.793 M 419.208 349.711 C 417.948 349.953, 415.428 351.639, 413.608 353.459 C 404.095 362.972, 412.385 379.026, 425.536 376.559 C 439.365 373.965, 440.410 353.846, 426.917 349.976 C 423.421 348.973, 423.116 348.963, 419.208 349.711" stroke="none" fill="#0463b3" fill-rule="evenodd"/><path d="M 139.919 174.946 C 116.933 179.160, 99.333 188.331, 83.460 204.367 C 70.147 217.817, 61.478 232.887, 57.071 250.241 L 55.253 257.398 49.877 258.623 C 38.106 261.305, 25.928 268.687, 17.634 278.169 C 12.232 284.343, 6.601 295.195, 4.509 303.460 C 2.599 311.003, 2.582 326.840, 4.475 333.955 C 9.872 354.235, 26.093 369.807, 48 375.740 C 53.683 377.279, 59.400 377.500, 93.500 377.500 L 132.500 377.500 132.789 368.750 L 133.078 360 95.749 360 C 65.887 360, 57.275 359.702, 52.693 358.508 C 35.290 353.975, 23.944 342.105, 20.787 325.128 C 18.458 312.606, 23.606 297.263, 33.435 287.435 C 40.962 279.908, 49.209 276.156, 61.420 274.704 C 71.705 273.481, 71.956 273.285, 71.986 266.410 C 72.009 261.235, 75.831 247.925, 79.543 240.089 C 90.742 216.453, 111.121 199.981, 136.699 193.892 C 144.038 192.144, 147.743 191.866, 159 192.218 C 170.928 192.591, 173.606 193.015, 182 195.862 C 187.225 197.634, 195.069 201.202, 199.432 203.792 C 207.635 208.661, 221.181 221.055, 224.524 226.750 L 226.431 230 237.311 230 L 248.190 230 245.469 225.250 C 231.761 201.324, 209.125 184.149, 181.904 177.019 C 172.631 174.590, 148.389 173.393, 139.919 174.946 M 227 307.500 L 227 374 237.500 374 L 248 374 248 357.191 L 248 340.381 253.737 335.441 C 256.892 332.723, 260.867 329.281, 262.571 327.792 L 265.668 325.084 283.584 349.521 L 301.500 373.958 313.372 373.979 C 322.737 373.996, 325.035 373.736, 324.250 372.750 C 323.702 372.063, 313.504 358.301, 301.587 342.170 L 279.919 312.839 297.960 294.042 C 307.882 283.703, 316 274.965, 316 274.622 C 316 274.280, 310.712 273.986, 304.250 273.970 L 292.500 273.940 270.294 296.720 L 248.088 319.500 248.044 280.250 L 248 241 237.500 241 L 227 241 227 307.500 M 186.746 273.023 C 171.789 276.798, 160.714 288.442, 160.714 300.394 C 160.714 311.216, 167.417 319.994, 181.129 327.128 C 190.112 331.801, 193 335.400, 193 341.918 C 193 347.184, 190.965 351.162, 186.546 354.533 C 180.837 358.887, 175.198 360, 158.841 360 L 144 360 144 369.146 L 144 378.293 160.750 377.713 C 178.937 377.083, 185.466 375.817, 194.757 371.116 C 207.898 364.468, 215.385 354.110, 215.364 342.607 C 215.338 329.122, 209.262 319.839, 195.917 312.896 C 184.712 307.066, 180.640 301.707, 182.900 295.763 C 185.337 289.354, 194.393 287.906, 207 291.910 C 210.575 293.045, 213.838 293.980, 214.250 293.987 C 214.662 293.994, 215 289.769, 215 284.598 L 215 275.196 211.750 274.001 C 207.500 272.438, 191.536 271.814, 186.746 273.023 M 320.247 275.715 C 320.522 276.697, 329.777 297.300, 340.813 321.500 C 351.850 345.700, 361.346 367.525, 361.916 370 C 362.485 372.475, 362.962 376.490, 362.976 378.921 C 362.997 382.865, 362.517 383.805, 358.536 387.620 C 353.539 392.408, 344.049 396, 336.395 396 L 332 396 332 404.648 L 332 413.296 339.750 412.696 C 354.308 411.568, 369.223 404.819, 375.582 396.481 C 377.906 393.434, 427 277.446, 427 275.003 C 427 274.291, 423.414 274.028, 416.307 274.216 L 405.613 274.500 390.418 312.193 L 375.223 349.886 358.352 312.193 L 341.480 274.500 330.614 274.215 C 320.591 273.952, 319.787 274.068, 320.247 275.715" stroke="none" fill="#04bcec" fill-rule="evenodd"/></svg>